<svg width="297" height="109" viewBox="0 0 297 109" fill="none" xmlns="http://www.w3.org/2000/svg">
<rect x="0.5" y="0.5" width="296" height="108" rx="54" fill="white" stroke="#C4C4C4"/>
<path d="M58.76 79L38.096 56.104V79H31.544V28.816H38.096V52.072L58.832 28.816H67.112L44.36 53.944L67.328 79H58.76ZM110.646 57.76C110.646 59.008 110.574 60.328 110.43 61.72H78.8936C79.1336 65.608 80.4536 68.656 82.8536 70.864C85.3016 73.024 88.2536 74.104 91.7096 74.104C94.5416 74.104 96.8936 73.456 98.7656 72.16C100.686 70.816 102.03 69.04 102.798 66.832H109.854C108.798 70.624 106.686 73.72 103.518 76.12C100.35 78.472 96.4136 79.648 91.7096 79.648C87.9656 79.648 84.6056 78.808 81.6296 77.128C78.7016 75.448 76.3976 73.072 74.7176 70C73.0376 66.88 72.1976 63.28 72.1976 59.2C72.1976 55.12 73.0136 51.544 74.6456 48.472C76.2776 45.4 78.5576 43.048 81.4856 41.416C84.4616 39.736 87.8696 38.896 91.7096 38.896C95.4536 38.896 98.7656 39.712 101.646 41.344C104.526 42.976 106.734 45.232 108.27 48.112C109.854 50.944 110.646 54.16 110.646 57.76ZM103.878 56.392C103.878 53.896 103.326 51.76 102.222 49.984C101.118 48.16 99.6056 46.792 97.6856 45.88C95.8136 44.92 93.7256 44.44 91.4216 44.44C88.1096 44.44 85.2776 45.496 82.9256 47.608C80.6216 49.72 79.3016 52.648 78.9656 56.392H103.878ZM125.846 45.952C126.998 43.696 128.63 41.944 130.742 40.696C132.902 39.448 135.518 38.824 138.59 38.824V45.592H136.862C129.518 45.592 125.846 49.576 125.846 57.544V79H119.294V39.544H125.846V45.952ZM149.681 33.136C148.433 33.136 147.377 32.704 146.513 31.84C145.697 30.976 145.289 29.92 145.289 28.672C145.289 27.424 145.697 26.368 146.513 25.504C147.377 24.64 148.433 24.208 149.681 24.208C150.929 24.208 151.961 24.64 152.777 25.504C153.641 26.368 154.073 27.424 154.073 28.672C154.073 29.92 153.641 30.976 152.777 31.84C151.961 32.704 150.929 33.136 149.681 33.136ZM152.921 87.568C152.921 91.072 152.033 93.64 150.257 95.272C148.481 96.904 145.889 97.72 142.481 97.72H138.665V92.176H141.401C143.225 92.176 144.497 91.816 145.217 91.096C145.985 90.376 146.369 89.152 146.369 87.424V39.544H152.921V87.568ZM161.565 59.128C161.565 55.096 162.381 51.568 164.013 48.544C165.645 45.472 167.877 43.096 170.709 41.416C173.589 39.736 176.781 38.896 180.285 38.896C183.741 38.896 186.741 39.64 189.285 41.128C191.829 42.616 193.725 44.488 194.973 46.744V39.544H201.597V79H194.973V71.656C193.677 73.96 191.733 75.88 189.141 77.416C186.597 78.904 183.621 79.648 180.213 79.648C176.709 79.648 173.541 78.784 170.709 77.056C167.877 75.328 165.645 72.904 164.013 69.784C162.381 66.664 161.565 63.112 161.565 59.128ZM194.973 59.2C194.973 56.224 194.373 53.632 193.173 51.424C191.973 49.216 190.341 47.536 188.277 46.384C186.261 45.184 184.029 44.584 181.581 44.584C179.133 44.584 176.901 45.16 174.885 46.312C172.869 47.464 171.261 49.144 170.061 51.352C168.861 53.56 168.261 56.152 168.261 59.128C168.261 62.152 168.861 64.792 170.061 67.048C171.261 69.256 172.869 70.96 174.885 72.16C176.901 73.312 179.133 73.888 181.581 73.888C184.029 73.888 186.261 73.312 188.277 72.16C190.341 70.96 191.973 69.256 193.173 67.048C194.373 64.792 194.973 62.176 194.973 59.2Z" fill="#3A5EDE"/>
<path d="M219.221 28.816V79H212.669V28.816H219.221ZM249.612 38.824C254.412 38.824 258.3 40.288 261.276 43.216C264.252 46.096 265.74 50.272 265.74 55.744V79H259.26V56.68C259.26 52.744 258.276 49.744 256.308 47.68C254.34 45.568 251.652 44.512 248.244 44.512C244.788 44.512 242.028 45.592 239.964 47.752C237.948 49.912 236.94 53.056 236.94 57.184V79H230.388V39.544H236.94V45.16C238.236 43.144 239.988 41.584 242.196 40.48C244.452 39.376 246.924 38.824 249.612 38.824Z" fill="#313F72"/>
</svg>
